<svg width="3779" height="8735" viewBox="0 0 3779 8735" fill="none" xmlns="http://www.w3.org/2000/svg">
<g filter="url(#filter0_f_306_2)">
<path d="M2378.96 355.559C2680.68 699.088 2686.89 689.016 3077.97 811.046C3271.74 871.509 2812.92 1210.64 2595.27 936.905C2536.59 801.899 2308.08 514.064 2058.38 795.434C1804.84 1081.11 2181.64 175.167 1448 734.31C1667.34 472.816 2113.62 53.445 2378.96 355.559Z" fill="url(#paint0_linear_306_2)"/>
</g>
<g filter="url(#filter1_f_306_2)">
<path d="M2204.96 4629.07C2506.68 4972.6 2512.89 4962.52 2903.97 5084.55C3097.74 5145.02 2638.92 5484.15 2421.27 5210.41C2362.59 5075.41 2134.08 4787.57 1884.38 5068.94C1630.84 5354.62 2007.64 4448.68 1274 5007.82C1493.34 4746.32 1939.62 4326.95 2204.96 4629.07Z" fill="url(#paint1_linear_306_2)"/>
</g>
<g filter="url(#filter2_f_306_2)">
<path d="M2378.96 2302.07C2680.68 2645.6 2686.89 2635.52 3077.97 2757.55C3271.74 2818.02 2812.92 3157.14 2595.27 2883.41C2536.59 2748.41 2308.08 2460.57 2058.38 2741.94C1804.84 3027.62 2181.64 2121.68 1448 2680.82C1667.34 2419.32 2113.62 1999.95 2378.96 2302.07Z" fill="url(#paint2_linear_306_2)" fill-opacity="0.5"/>
</g>
<g filter="url(#filter3_f_306_2)">
<path d="M2378.96 4733.07C2680.68 5076.6 2686.89 5066.52 3077.97 5188.55C3271.74 5249.02 2812.92 5588.14 2595.27 5314.41C2536.59 5179.41 2308.08 4891.57 2058.38 5172.94C1804.84 5458.62 2181.64 4552.68 1448 5111.82C1667.34 4850.32 2113.62 4430.95 2378.96 4733.07Z" fill="url(#paint3_linear_306_2)" fill-opacity="0.5"/>
</g>
<g filter="url(#filter4_f_306_2)">
<path d="M2378.96 7372.07C2680.68 7715.6 2686.89 7705.52 3077.97 7827.55C3271.74 7888.02 2812.92 8227.14 2595.27 7953.41C2536.59 7818.41 2308.08 7530.57 2058.38 7811.94C1804.84 8097.62 2181.64 7191.68 1448 7750.82C1667.34 7489.32 2113.62 7069.95 2378.96 7372.07Z" fill="url(#paint4_linear_306_2)" fill-opacity="0.5"/>
</g>
<g filter="url(#filter5_f_306_2)">
<path d="M1107.79 1656.64C736.27 1358.92 731.724 1370.37 308.619 1315.94C98.9808 1288.97 508.176 858.246 780.859 1099.6C865.441 1227.43 1151.82 1481.28 1357.01 1147.6C1565.35 808.8 1342.76 1805.95 1993.99 1099.92C1816.34 1407.73 1434.52 1918.48 1107.79 1656.64Z" fill="url(#paint5_linear_306_2)" fill-opacity="0.5"/>
</g>
<g filter="url(#filter6_f_306_2)">
<path d="M1107.83 4087.21C736.311 3789.49 731.765 3800.94 308.66 3746.51C99.0218 3719.54 508.217 3288.82 780.9 3530.17C865.482 3658 1151.86 3911.85 1357.05 3578.17C1565.39 3239.37 1342.8 4236.52 1994.03 3530.49C1816.38 3838.3 1434.56 4349.05 1107.83 4087.21Z" fill="url(#paint6_linear_306_2)" fill-opacity="0.5"/>
</g>
<g filter="url(#filter7_f_306_2)">
<path d="M1107.83 6518.21C736.311 6220.49 731.765 6231.94 308.66 6177.51C99.0218 6150.54 508.217 5719.82 780.9 5961.17C865.482 6089 1151.86 6342.85 1357.05 6009.17C1565.39 5670.37 1342.8 6667.52 1994.03 5961.49C1816.38 6269.3 1434.56 6780.05 1107.83 6518.21Z" fill="url(#paint7_linear_306_2)" fill-opacity="0.5"/>
</g>
<defs>
<filter id="filter0_f_306_2" x="1198" y="0.491821" width="2176.61" height="1291.78" filterUnits="userSpaceOnUse" color-interpolation-filters="sRGB">
<feFlood flood-opacity="0" result="BackgroundImageFix"/>
<feBlend mode="normal" in="SourceGraphic" in2="BackgroundImageFix" result="shape"/>
<feGaussianBlur stdDeviation="125" result="effect1_foregroundBlur_306_2"/>
</filter>
<filter id="filter1_f_306_2" x="1024" y="4274" width="2176.61" height="1291.78" filterUnits="userSpaceOnUse" color-interpolation-filters="sRGB">
<feFlood flood-opacity="0" result="BackgroundImageFix"/>
<feBlend mode="normal" in="SourceGraphic" in2="BackgroundImageFix" result="shape"/>
<feGaussianBlur stdDeviation="125" result="effect1_foregroundBlur_306_2"/>
</filter>
<filter id="filter2_f_306_2" x="1198" y="1947" width="2176.61" height="1291.77" filterUnits="userSpaceOnUse" color-interpolation-filters="sRGB">
<feFlood flood-opacity="0" result="BackgroundImageFix"/>
<feBlend mode="normal" in="SourceGraphic" in2="BackgroundImageFix" result="shape"/>
<feGaussianBlur stdDeviation="125" result="effect1_foregroundBlur_306_2"/>
</filter>
<filter id="filter3_f_306_2" x="1198" y="4378" width="2176.61" height="1291.77" filterUnits="userSpaceOnUse" color-interpolation-filters="sRGB">
<feFlood flood-opacity="0" result="BackgroundImageFix"/>
<feBlend mode="normal" in="SourceGraphic" in2="BackgroundImageFix" result="shape"/>
<feGaussianBlur stdDeviation="125" result="effect1_foregroundBlur_306_2"/>
</filter>
<filter id="filter4_f_306_2" x="1198" y="7017" width="2176.61" height="1291.77" filterUnits="userSpaceOnUse" color-interpolation-filters="sRGB">
<feFlood flood-opacity="0" result="BackgroundImageFix"/>
<feBlend mode="normal" in="SourceGraphic" in2="BackgroundImageFix" result="shape"/>
<feGaussianBlur stdDeviation="125" result="effect1_foregroundBlur_306_2"/>
</filter>
<filter id="filter5_f_306_2" x="0.958984" y="776.428" width="2243.03" height="1202.5" filterUnits="userSpaceOnUse" color-interpolation-filters="sRGB">
<feFlood flood-opacity="0" result="BackgroundImageFix"/>
<feBlend mode="normal" in="SourceGraphic" in2="BackgroundImageFix" result="shape"/>
<feGaussianBlur stdDeviation="125" result="effect1_foregroundBlur_306_2"/>
</filter>
<filter id="filter6_f_306_2" x="1" y="3207" width="2243.03" height="1202.5" filterUnits="userSpaceOnUse" color-interpolation-filters="sRGB">
<feFlood flood-opacity="0" result="BackgroundImageFix"/>
<feBlend mode="normal" in="SourceGraphic" in2="BackgroundImageFix" result="shape"/>
<feGaussianBlur stdDeviation="125" result="effect1_foregroundBlur_306_2"/>
</filter>
<filter id="filter7_f_306_2" x="1" y="5638" width="2243.03" height="1202.5" filterUnits="userSpaceOnUse" color-interpolation-filters="sRGB">
<feFlood flood-opacity="0" result="BackgroundImageFix"/>
<feBlend mode="normal" in="SourceGraphic" in2="BackgroundImageFix" result="shape"/>
<feGaussianBlur stdDeviation="125" result="effect1_foregroundBlur_306_2"/>
</filter>
<linearGradient id="paint0_linear_306_2" x1="3252.77" y1="802.42" x2="2167.86" y2="-171.011" gradientUnits="userSpaceOnUse">
<stop stop-color="#20145E"/>
<stop offset="0.406" stop-color="#66E3FF"/>
<stop offset="0.899" stop-color="#1E1C7D"/>
</linearGradient>
<linearGradient id="paint1_linear_306_2" x1="3078.77" y1="5075.93" x2="1993.86" y2="4102.5" gradientUnits="userSpaceOnUse">
<stop stop-color="#20145E"/>
<stop offset="0.406" stop-color="#66E3FF"/>
<stop offset="0.899" stop-color="#1E1C7D"/>
</linearGradient>
<linearGradient id="paint2_linear_306_2" x1="3252.77" y1="2748.93" x2="2167.86" y2="1775.5" gradientUnits="userSpaceOnUse">
<stop stop-color="#20145E"/>
<stop offset="0.406" stop-color="#66E3FF"/>
<stop offset="0.899" stop-color="#1E1C7D"/>
</linearGradient>
<linearGradient id="paint3_linear_306_2" x1="3252.77" y1="5179.93" x2="2167.86" y2="4206.5" gradientUnits="userSpaceOnUse">
<stop stop-color="#20145E"/>
<stop offset="0.406" stop-color="#66E3FF"/>
<stop offset="0.899" stop-color="#1E1C7D"/>
</linearGradient>
<linearGradient id="paint4_linear_306_2" x1="3252.77" y1="7818.93" x2="2167.86" y2="6845.5" gradientUnits="userSpaceOnUse">
<stop stop-color="#20145E"/>
<stop offset="0.406" stop-color="#66E3FF"/>
<stop offset="0.899" stop-color="#1E1C7D"/>
</linearGradient>
<linearGradient id="paint5_linear_306_2" x1="130.923" y1="1356.39" x2="1419.48" y2="2158.46" gradientUnits="userSpaceOnUse">
<stop stop-color="#20145E"/>
<stop offset="0.406" stop-color="#A966FF" stop-opacity="0.72"/>
<stop offset="0.899" stop-color="#1E1C7D"/>
</linearGradient>
<linearGradient id="paint6_linear_306_2" x1="130.964" y1="3786.96" x2="1419.52" y2="4589.03" gradientUnits="userSpaceOnUse">
<stop stop-color="#20145E"/>
<stop offset="0.406" stop-color="#A966FF" stop-opacity="0.72"/>
<stop offset="0.899" stop-color="#1E1C7D"/>
</linearGradient>
<linearGradient id="paint7_linear_306_2" x1="130.964" y1="6217.96" x2="1419.52" y2="7020.03" gradientUnits="userSpaceOnUse">
<stop stop-color="#20145E"/>
<stop offset="0.406" stop-color="#A966FF" stop-opacity="0.72"/>
<stop offset="0.899" stop-color="#1E1C7D"/>
</linearGradient>
</defs>
</svg>
